<svg width="48" height="22" viewBox="0 0 48 22" fill="none" xmlns="http://www.w3.org/2000/svg">
<path d="M14.5909 1H8.86363C8.53813 1 8.22597 1.12643 7.99581 1.35147C7.76565 1.57652 7.63635 1.88174 7.63635 2.2V19.8C7.63635 19.9576 7.6681 20.1136 7.72977 20.2592C7.79145 20.4048 7.88185 20.5371 7.99581 20.6485C8.10978 20.76 8.24507 20.8484 8.39397 20.9087C8.54287 20.969 8.70246 21 8.86363 21H14.5909C14.7521 21 14.9117 20.969 15.0606 20.9087C15.2095 20.8484 15.3447 20.76 15.4587 20.6485C15.5727 20.5371 15.6631 20.4048 15.7247 20.2592C15.7864 20.1136 15.8182 19.9576 15.8182 19.8V2.2C15.8182 1.88174 15.6889 1.57652 15.4587 1.35147C15.2286 1.12643 14.9164 1 14.5909 1ZM39.1364 1H33.4091C33.0836 1 32.7714 1.12643 32.5413 1.35147C32.3111 1.57652 32.1818 1.88174 32.1818 2.2V19.8C32.1818 19.9576 32.2135 20.1136 32.2752 20.2592C32.3369 20.4048 32.4273 20.5371 32.5413 20.6485C32.6552 20.76 32.7905 20.8484 32.9394 20.9087C33.0883 20.969 33.2479 21 33.4091 21H39.1364C39.2975 21 39.4571 20.969 39.606 20.9087C39.7549 20.8484 39.8902 20.76 40.0042 20.6485C40.1181 20.5371 40.2085 20.4048 40.2702 20.2592C40.3319 20.1136 40.3636 19.9576 40.3636 19.8V2.2C40.3636 1.88174 40.2343 1.57652 40.0042 1.35147C39.774 1.12643 39.4618 1 39.1364 1Z" stroke="#0CBA86" stroke-width="2" stroke-linecap="round" stroke-linejoin="round"/>
<path d="M15.8182 11H32.1818M1.5 15.8V6.2C1.5 5.88174 1.6293 5.57651 1.85946 5.35147C2.08962 5.12643 2.40178 5 2.72727 5H6.40909C6.73458 5 7.04675 5.12643 7.2769 5.35147C7.50706 5.57651 7.63636 5.88174 7.63636 6.2V15.8C7.63636 16.1183 7.50706 16.4235 7.2769 16.6485C7.04675 16.8736 6.73458 17 6.40909 17H2.72727C2.40178 17 2.08962 16.8736 1.85946 16.6485C1.6293 16.4235 1.5 16.1183 1.5 15.8ZM46.5 15.8V6.2C46.5 5.88174 46.3707 5.57651 46.1405 5.35147C45.9104 5.12643 45.5982 5 45.2727 5H41.5909C41.2654 5 40.9533 5.12643 40.7231 5.35147C40.4929 5.57651 40.3636 5.88174 40.3636 6.2V15.8C40.3636 16.1183 40.4929 16.4235 40.7231 16.6485C40.9533 16.8736 41.2654 17 41.5909 17H45.2727C45.5982 17 45.9104 16.8736 46.1405 16.6485C46.3707 16.4235 46.5 16.1183 46.5 15.8Z" stroke="#0CBA86" stroke-width="2" stroke-linecap="round" stroke-linejoin="round"/>
</svg>
