<svg width="37" height="40" viewBox="0 0 37 40" fill="none" xmlns="http://www.w3.org/2000/svg">
<path d="M30.8333 8C30.8333 8.42435 30.6709 8.83131 30.3818 9.13137C30.0927 9.43143 29.7005 9.6 29.2917 9.6H24.6667C24.2578 9.6 23.8657 9.43143 23.5765 9.13137C23.2874 8.83131 23.125 8.42435 23.125 8C23.125 7.57565 23.2874 7.16869 23.5765 6.86863C23.8657 6.56857 24.2578 6.4 24.6667 6.4H29.2917C29.7005 6.4 30.0927 6.56857 30.3818 6.86863C30.6709 7.16869 30.8333 7.57565 30.8333 8ZM29.2917 12.8H24.6667C24.2578 12.8 23.8657 12.9686 23.5765 13.2686C23.2874 13.5687 23.125 13.9757 23.125 14.4C23.125 14.8243 23.2874 15.2313 23.5765 15.5314C23.8657 15.8314 24.2578 16 24.6667 16H29.2917C29.7005 16 30.0927 15.8314 30.3818 15.5314C30.6709 15.2313 30.8333 14.8243 30.8333 14.4C30.8333 13.9757 30.6709 13.5687 30.3818 13.2686C30.0927 12.9686 29.7005 12.8 29.2917 12.8ZM7.70833 9.6H12.3333C12.7422 9.6 13.1343 9.43143 13.4235 9.13137C13.7126 8.83131 13.875 8.42435 13.875 8C13.875 7.57565 13.7126 7.16869 13.4235 6.86863C13.1343 6.56857 12.7422 6.4 12.3333 6.4H7.70833C7.29946 6.4 6.90733 6.56857 6.61821 6.86863C6.32909 7.16869 6.16667 7.57565 6.16667 8C6.16667 8.42435 6.32909 8.83131 6.61821 9.13137C6.90733 9.43143 7.29946 9.6 7.70833 9.6ZM12.3333 12.8H7.70833C7.29946 12.8 6.90733 12.9686 6.61821 13.2686C6.32909 13.5687 6.16667 13.9757 6.16667 14.4C6.16667 14.8243 6.32909 15.2313 6.61821 15.5314C6.90733 15.8314 7.29946 16 7.70833 16H12.3333C12.7422 16 13.1343 15.8314 13.4235 15.5314C13.7126 15.2313 13.875 14.8243 13.875 14.4C13.875 13.9757 13.7126 13.5687 13.4235 13.2686C13.1343 12.9686 12.7422 12.8 12.3333 12.8ZM37 3.2V38.4C37 38.8243 36.8376 39.2313 36.5485 39.5314C36.2593 39.8314 35.8672 40 35.4583 40C35.0495 40 34.6573 39.8314 34.3682 39.5314C34.0791 39.2313 33.9167 38.8243 33.9167 38.4V35.2H20.0417V38.4C20.0417 38.8243 19.8792 39.2313 19.5901 39.5314C19.301 39.8314 18.9089 40 18.5 40C18.0911 40 17.699 39.8314 17.4099 39.5314C17.1208 39.2313 16.9583 38.8243 16.9583 38.4V35.2H3.08333V38.4C3.08333 38.8243 2.92091 39.2313 2.63179 39.5314C2.34267 39.8314 1.95054 40 1.54167 40C1.13279 40 0.740663 39.8314 0.451544 39.5314C0.162425 39.2313 0 38.8243 0 38.4V3.2C0 2.35131 0.32485 1.53737 0.903087 0.937258C1.48132 0.337142 2.26558 0 3.08333 0H33.9167C34.7344 0 35.5187 0.337142 36.0969 0.937258C36.6751 1.53737 37 2.35131 37 3.2ZM16.9583 32V3.2H3.08333V32H16.9583ZM20.0417 32H33.9167V3.2H20.0417V32Z" fill="#0CBA86"/>
</svg>
