<svg width="32" height="38" viewBox="0 0 32 38" fill="none" xmlns="http://www.w3.org/2000/svg">
<path d="M2 36L12.7692 34.9375L14.9231 30.6875M30 36V25.375H18.1538L23.5385 11.5625L11.6923 13.6875L14.9231 17.9375M23.5385 4.125C23.5385 4.68859 23.7654 5.22909 24.1693 5.6276C24.5732 6.02612 25.1211 6.25 25.6923 6.25C26.2635 6.25 26.8114 6.02612 27.2153 5.6276C27.6192 5.22909 27.8462 4.68859 27.8462 4.125C27.8462 3.56141 27.6192 3.02091 27.2153 2.6224C26.8114 2.22388 26.2635 2 25.6923 2C25.1211 2 24.5732 2.22388 24.1693 2.6224C23.7654 3.02091 23.5385 3.56141 23.5385 4.125Z" stroke="#0CBA86" stroke-width="4" stroke-linecap="round" stroke-linejoin="round"/>
</svg>
