<svg width="31" height="27" viewBox="0 0 31 27" fill="none" xmlns="http://www.w3.org/2000/svg">
<path fill-rule="evenodd" clip-rule="evenodd" d="M5.50921 3.94747C4.35658 5.41789 3.65789 7.42644 3.65789 9.52443C3.65789 10.7408 3.86632 11.9057 4.23421 13.0145H11.0908L13.7655 8.24712L15.4368 14.1114L17.4816 11.4752H22.6053V13.058H18.2553L14.7737 17.5452L13.2871 12.3291L12.0145 14.5965H0.5V13.0137H2.58105C2.24986 11.88 2.08081 10.7049 2.07895 9.52364C2.07895 7.0901 2.885 4.73254 4.26737 2.96931C5.65368 1.20134 7.64947 0 9.99895 0C12.7645 0 14.8676 1.55351 16.2895 3.74646C17.7105 1.5543 19.8145 0 22.5808 0C24.9295 0 26.9261 1.20134 28.3124 2.9701C29.6932 4.73254 30.5 7.09089 30.5 9.52443C30.5 14.7334 26.9126 19.0837 23.5195 22.053C21.4547 23.8452 19.207 25.414 16.8137 26.7333L16.6945 26.7966L16.6629 26.814L16.6534 26.818L16.6511 26.8196C16.6511 26.8196 16.6495 26.8204 16.2895 26.116L15.9468 26.8283L15.9421 26.8267L15.9311 26.8211L15.8916 26.8014C15.6591 26.6845 15.4286 26.5639 15.2 26.4397C14.5586 26.0897 13.9283 25.7197 13.31 25.3302C11.7697 24.3615 9.74947 22.9346 7.84842 21.1097C6.83474 20.1362 5.85105 19.0441 4.99053 17.8428C4.92664 17.7586 4.88023 17.6624 4.85405 17.56C4.82786 17.4575 4.82244 17.3508 4.83808 17.2462C4.85373 17.1416 4.89014 17.0412 4.94516 16.951C5.00017 16.8607 5.07268 16.7824 5.15839 16.7207C5.2441 16.659 5.34128 16.6152 5.44418 16.5918C5.54708 16.5684 5.65362 16.5659 5.75749 16.5845C5.86137 16.6031 5.96047 16.6423 6.04895 16.7C6.13743 16.7576 6.21349 16.8324 6.27263 16.92C7.06605 18.028 7.98263 19.0465 8.94105 19.9669C10.7403 21.6953 12.6674 23.0573 14.1492 23.9895C14.8439 24.4269 15.5543 24.8384 16.2792 25.2233L16.4782 25.1117C18.6139 23.8967 20.6244 22.4729 22.4805 20.8612C25.7979 17.9575 28.9211 14.0116 28.9211 9.52364C28.9211 7.42644 28.2224 5.41709 27.0705 3.94668C25.9211 2.4826 24.3524 1.58279 22.5808 1.58279C20.1311 1.58279 18.2308 3.1814 16.9984 5.69962L16.2895 7.14629L15.5805 5.69962C14.3482 3.1814 12.4479 1.58279 9.99895 1.58279C8.22658 1.58279 6.6579 2.48181 5.50921 3.94747ZM16.2895 26.116L15.9468 26.8283L16.3005 27L16.6503 26.8204L16.2895 26.116Z" fill="#0CBA86"/>
</svg>
