<svg width="38" height="42" viewBox="0 0 38 42" fill="none" xmlns="http://www.w3.org/2000/svg">
<path d="M19.4857 19.1L17.5429 24.8L19.4857 30.5M19.4857 19.1L14.6286 16.25L13.6571 24.8M19.4857 19.1L26.2857 22.9V33.35M19.4857 30.5H16.5714L13.6571 24.8M19.4857 30.5L26.2857 33.35M13.6571 24.8V9.6L21.4286 2M13.6571 24.8L15.6 30.5M15.6 30.5H7.82857L2 40M15.6 30.5L17.5429 18.15L15.6 23.85V30.5ZM36 40L26.2857 33.35M23.3714 14.35C22.8562 14.35 22.362 14.1498 21.9976 13.7935C21.6333 13.4372 21.4286 12.9539 21.4286 12.45C21.4286 11.9461 21.6333 11.4628 21.9976 11.1065C22.362 10.7502 22.8562 10.55 23.3714 10.55C23.8867 10.55 24.3809 10.7502 24.7452 11.1065C25.1096 11.4628 25.3143 11.9461 25.3143 12.45C25.3143 12.9539 25.1096 13.4372 24.7452 13.7935C24.3809 14.1498 23.8867 14.35 23.3714 14.35Z" stroke="#0CBA86" stroke-width="3" stroke-linecap="round" stroke-linejoin="round"/>
</svg>
