<svg width="33" height="43" viewBox="0 0 33 43" fill="none" xmlns="http://www.w3.org/2000/svg">
<path d="M7.07143 35.8333C6.40357 35.8333 5.84336 35.604 5.39079 35.1453C4.93821 34.6867 4.71271 34.1197 4.71429 33.4444C4.71429 32.7676 4.94057 32.1998 5.39314 31.7412C5.84571 31.2825 6.40514 31.054 7.07143 31.0555C7.73929 31.0555 8.2995 31.2849 8.75207 31.7435C9.20464 32.2022 9.43014 32.7692 9.42857 33.4444C9.42857 34.1213 9.20229 34.689 8.74971 35.1477C8.29714 35.6064 7.73771 35.8349 7.07143 35.8333ZM16.5 35.8333C15.8321 35.8333 15.2719 35.604 14.8194 35.1453C14.3668 34.6867 14.1413 34.1197 14.1429 33.4444C14.1429 32.7676 14.3691 32.1998 14.8217 31.7412C15.2743 31.2825 15.8337 31.054 16.5 31.0555C17.1679 31.0555 17.7281 31.2849 18.1806 31.7435C18.6332 32.2022 18.8587 32.7692 18.8571 33.4444C18.8571 34.1213 18.6309 34.689 18.1783 35.1477C17.7257 35.6064 17.1663 35.8349 16.5 35.8333ZM25.9286 35.8333C25.2607 35.8333 24.7005 35.604 24.2479 35.1453C23.7954 34.6867 23.5699 34.1197 23.5714 33.4444C23.5714 32.7676 23.7977 32.1998 24.2503 31.7412C24.7029 31.2825 25.2623 31.054 25.9286 31.0555C26.5964 31.0555 27.1566 31.2849 27.6092 31.7435C28.0618 32.2022 28.2873 32.7692 28.2857 33.4444C28.2857 34.1213 28.0594 34.689 27.6069 35.1477C27.1543 35.6064 26.5949 35.8349 25.9286 35.8333ZM0 26.2778V21.5C0 17.2796 1.33571 13.6167 4.00714 10.5111C6.67857 7.40555 10.0571 5.57407 14.1429 5.01667V0H18.8571V5.01667C22.9429 5.57407 26.3214 7.40555 28.9929 10.5111C31.6643 13.6167 33 17.2796 33 21.5V26.2778H0ZM4.71429 21.5H28.2857C28.2857 18.1954 27.1362 15.3781 24.8372 13.0481C22.5382 10.7181 19.7591 9.55396 16.5 9.55555C13.2393 9.55555 10.4594 10.7205 8.16043 13.0505C5.86143 15.3805 4.71271 18.197 4.71429 21.5ZM7.07143 43C6.40357 43 5.84336 42.7707 5.39079 42.312C4.93821 41.8533 4.71271 41.2864 4.71429 40.6111C4.71429 39.9342 4.94057 39.3665 5.39314 38.9078C5.84571 38.4492 6.40514 38.2206 7.07143 38.2222C7.73929 38.2222 8.2995 38.4515 8.75207 38.9102C9.20464 39.3689 9.43014 39.9358 9.42857 40.6111C9.42857 41.288 9.20229 41.8557 8.74971 42.3144C8.29714 42.773 7.73771 43.0016 7.07143 43ZM16.5 43C15.8321 43 15.2719 42.7707 14.8194 42.312C14.3668 41.8533 14.1413 41.2864 14.1429 40.6111C14.1429 39.9342 14.3691 39.3665 14.8217 38.9078C15.2743 38.4492 15.8337 38.2206 16.5 38.2222C17.1679 38.2222 17.7281 38.4515 18.1806 38.9102C18.6332 39.3689 18.8587 39.9358 18.8571 40.6111C18.8571 41.288 18.6309 41.8557 18.1783 42.3144C17.7257 42.773 17.1663 43.0016 16.5 43ZM25.9286 43C25.2607 43 24.7005 42.7707 24.2479 42.312C23.7954 41.8533 23.5699 41.2864 23.5714 40.6111C23.5714 39.9342 23.7977 39.3665 24.2503 38.9078C24.7029 38.4492 25.2623 38.2206 25.9286 38.2222C26.5964 38.2222 27.1566 38.4515 27.6092 38.9102C28.0618 39.3689 28.2873 39.9358 28.2857 40.6111C28.2857 41.288 28.0594 41.8557 27.6069 42.3144C27.1543 42.773 26.5949 43.0016 25.9286 43Z" fill="#0CBA86"/>
</svg>
