<svg width="24" height="36" viewBox="0 0 24 36" fill="none" xmlns="http://www.w3.org/2000/svg">
<path d="M23 15.2517L20.8244 32.2723C20.7524 32.8994 20.4634 33.4767 20.0125 33.894C19.5617 34.3113 18.9805 34.5394 18.38 34.5348H5.59556C4.99501 34.5394 4.41388 34.3113 3.96303 33.894C3.51218 33.4767 3.22316 32.8994 3.15111 32.2723L1 15.2517M23 15.2517H1M23 15.2517L21.1178 9.28675C20.9477 8.75458 20.6167 8.2956 20.1753 7.9799C19.7339 7.6642 19.2064 7.50914 18.6733 7.53841H5.20444C4.69198 7.53702 4.19206 7.70506 3.77535 8.0188C3.35864 8.33253 3.04621 8.77608 2.88222 9.28675L1 15.2517" stroke="#0CBA86" stroke-width="2" stroke-linecap="round" stroke-linejoin="round"/>
<path d="M16.4406 8V3.8C16.4406 3.05739 16.1596 2.3452 15.6595 1.8201C15.1594 1.295 14.4811 1 13.7739 1H11.1072C10.4 1 9.7217 1.295 9.2216 1.8201C8.7215 2.3452 8.44055 3.05739 8.44055 3.8V8" stroke="#0CBA86" stroke-width="2" stroke-linecap="round" stroke-linejoin="round"/>
</svg>
