<svg width="30" height="35" viewBox="0 0 30 35" fill="none" xmlns="http://www.w3.org/2000/svg">
<path d="M28 1.66667L14.3333 12.8333L12.3167 11.1L18.3333 7.63333L10.6833 0L8.33333 2.35L12.9 6.91667L3.33333 12.4333L1.35 19.5833L5.45 26.6667L8.33333 25L4.95 19.1667L5.53333 16.9667L10.8333 20L11.6667 35H15L15.8333 18.3333L30 4L28 1.66667ZM3.33333 3.33333C4.21739 3.33333 5.06523 3.68452 5.69036 4.30964C6.31548 4.93476 6.66667 5.78261 6.66667 6.66667C6.66667 7.55072 6.31548 8.39857 5.69036 9.02369C5.06523 9.64881 4.21739 10 3.33333 10C1.48333 10 0 8.51667 0 6.66667C0 4.81667 1.5 3.33333 3.33333 3.33333Z" fill="#0CBA86"/>
</svg>
