<svg width="41" height="40" viewBox="0 0 41 40" fill="none" xmlns="http://www.w3.org/2000/svg">
<path d="M20.5 0C16.5444 0 12.6776 1.17298 9.3886 3.37061C6.09962 5.56823 3.53617 8.69181 2.02242 12.3463C0.508665 16.0009 0.112599 20.0222 0.884303 23.9018C1.65601 27.7814 3.56082 31.3451 6.35787 34.1421C9.15492 36.9392 12.7186 38.844 16.5982 39.6157C20.4778 40.3874 24.4991 39.9913 28.1537 38.4776C31.8082 36.9638 34.9318 34.4004 37.1294 31.1114C39.327 27.8224 40.5 23.9556 40.5 20C40.4942 14.6975 38.3852 9.61376 34.6357 5.86429C30.8862 2.11483 25.8025 0.00582319 20.5 0ZM6.90001 7.614C9.81153 10.7904 11.5049 14.8947 11.68 19.2H2.11801C2.30189 14.8962 3.99482 10.7946 6.90001 7.614ZM21.3 19.2V1.618C25.6412 1.80397 29.7751 3.52643 32.964 6.478C29.7542 9.95738 27.8936 14.4694 27.718 19.2H21.3ZM19.7 19.2H13.282C13.1064 14.4694 11.2458 9.95738 8.03601 6.478C11.2249 3.52643 15.3588 1.80397 19.7 1.618V19.2ZM11.68 20.8C11.5049 25.1053 9.81153 29.2096 6.90001 32.386C3.99482 29.2054 2.30189 25.1037 2.11801 20.8H11.68ZM13.28 20.8H19.7V38.382C15.3588 38.196 11.2249 36.4736 8.03601 33.522C11.2458 30.0426 13.1064 25.5306 13.282 20.8H13.28ZM21.3 20.8H27.718C27.8936 25.5306 29.7542 30.0426 32.964 33.522C29.7751 36.4736 25.6412 38.196 21.3 38.382V20.8ZM29.32 20.8H38.882C38.6981 25.1037 37.0052 29.2054 34.1 32.386C31.1885 29.2096 29.4952 25.1053 29.32 20.8ZM29.32 19.2C29.4952 14.8947 31.1885 10.7904 34.1 7.614C37.0052 10.7946 38.6981 14.8962 38.882 19.2H29.32Z" fill="#0CBA86"/>
</svg>
